<?xml version="1.0" encoding="UTF-8"?>
<svg id="Layer_2" xmlns="http://www.w3.org/2000/svg" viewBox="0 0 278 120">
  <defs>
    <style>
      .cls-1 {
        fill: #b40036;
      }
    </style>
  </defs>
  <g id="Layer_1-2" data-name="Layer_1">
    <path class="cls-1" d="M76.56,71.64l-14.11-9.17,9.17-14.11,14.11,9.17-9.17,14.11ZM68.88,7.49L54.18,0l-7.49,14.7,14.7,7.49,7.49-14.7ZM76.56,39.04l9.17-14.11-14.11-9.17-9.17,14.11,14.11,9.17ZM51.93,22.75l-15.09-5.79-5.79,15.09,15.09,5.79,5.79-15.09ZM68.88,40.1l-14.7-7.49-7.49,14.7,14.7,7.49,7.49-14.7ZM34.88,38.1l-15.3-4.1-4.1,15.3,15.3,4.1,4.1-15.3ZM91.66,55.77l10.81-13.35-13.35-10.81-10.81,13.35,13.35,10.81ZM31.05,64.65l15.09,5.79,5.79-15.09-15.09-5.79-5.79,15.09ZM68.88,72.7l-14.7-7.49-7.49,14.7,14.7,7.49,7.49-14.7ZM78.32,77.58l13.35,10.81,10.81-13.35-13.35-10.81-10.81,13.35ZM137.23,90.05h15.38V27.47h-15.38v62.58ZM208.28,85.97h0l11.7,9.81-11.25,7.88-14.96-12.55c-.83.06-1.67.09-2.54.09-5.7,0-10.72-1.3-15.04-3.89-4.33-2.6-7.69-6.34-10.1-11.25-2.41-4.9-3.6-10.75-3.6-17.54s1.2-12.67,3.6-17.45c2.41-4.77,5.77-8.43,10.1-10.96,4.33-2.53,9.34-3.8,15.04-3.8s10.72,1.27,15.05,3.8c4.33,2.53,7.69,6.18,10.09,10.96,2.41,4.78,3.6,10.59,3.6,17.45s-1.2,12.64-3.6,17.54c-2.02,4.12-4.72,7.42-8.09,9.91ZM204.21,58.52c0-3.97-.51-7.45-1.54-10.24-1.02-2.79-2.52-4.94-4.47-6.44-1.95-1.51-4.28-2.26-6.97-2.26s-5.02.76-6.97,2.26c-1.95,1.51-3.45,3.65-4.47,6.44-1.02,2.79-1.54,6.2-1.54,10.24s.51,7.42,1.54,10.33c1.02,2.91,2.51,5.16,4.47,6.73,1.95,1.57,4.28,2.36,6.97,2.36s5.01-.78,6.97-2.36c1.95-1.57,3.44-3.81,4.47-6.73,1.02-2.92,1.54-6.36,1.54-10.33ZM94.31,60l12.39,12.39,12.39-12.39-12.39-12.39-12.39,12.39ZM278,70.92c0,4.42-1.11,8.04-3.32,10.86-2.21,2.82-5.16,4.9-8.84,6.25-3.69,1.35-7.81,2.02-12.35,2.02h-23.84V27.47h22.01c4.36,0,8.3.46,11.83,1.4,3.52.93,6.33,2.51,8.41,4.76,2.08,2.24,3.12,5.38,3.12,9.42,0,3.08-.71,5.85-2.11,8.32-1.41,2.47-3.4,4.18-5.96,5.14v.38c3.46.83,6.17,2.37,8.12,4.61,1.95,2.24,2.93,5.38,2.93,9.42ZM245.03,52.27h6.15c3.01,0,5.24-.63,6.68-1.87,1.44-1.25,2.16-2.87,2.16-5.05s-.72-3.73-2.16-4.66c-1.44-.93-3.67-1.39-6.68-1.39h-6.15v12.98ZM263,70.54c0-2.5-.88-4.29-2.64-5.38-1.76-1.09-4.43-1.64-8.03-1.64h-7.31v14.71h7.31c3.59,0,6.26-.64,8.03-1.92,1.76-1.28,2.64-3.27,2.64-5.77ZM19.58,66.6l-4.1,15.3,15.3,4.1,4.1-15.3-15.3-4.1ZM36.84,82.17l-5.79,15.09,15.09,5.79,5.79-15.09-15.09-5.79ZM2.43,51.12l-2.43,15.33,15.33,2.43,2.43-15.33-15.33-2.43ZM46.69,112.51l14.7,7.49,7.49-14.7-14.7-7.49-7.49,14.7ZM62.45,95.08l14.11,9.17,9.17-14.11-14.11-9.17-9.17,14.11Z"/>
  </g>
</svg>
